solid patch0
  facet normal -0.755031 -0.655689 0
    outer loop
       vertex -0.4473 0.10832 2.17
       vertex -0.4108 0.06629 2.17
       vertex -0.4108 0.06629 2.18
    endloop
  endfacet
  facet normal -0.755031 -0.655689 0
    outer loop
       vertex -0.4473 0.10832 2.17
       vertex -0.4108 0.06629 2.18
       vertex -0.4473 0.10832 2.18
    endloop
  endfacet
  facet normal -0.506061 -0.862498 0
    outer loop
       vertex -0.3648 0.0393 2.17
       vertex -0.3648 0.0393 2.18
       vertex -0.4108 0.06629 2.18
    endloop
  endfacet
  facet normal -0.506061 -0.862498 0
    outer loop
       vertex -0.3648 0.0393 2.17
       vertex -0.4108 0.06629 2.18
       vertex -0.4108 0.06629 2.17
    endloop
  endfacet
  facet normal -0.179463 -0.983765 0
    outer loop
       vertex -0.31382 0.03 2.17
       vertex -0.31382 0.03 2.18
       vertex -0.3648 0.0393 2.18
    endloop
  endfacet
  facet normal -0.179463 -0.983765 0
    outer loop
       vertex -0.31382 0.03 2.17
       vertex -0.3648 0.0393 2.18
       vertex -0.3648 0.0393 2.17
    endloop
  endfacet
  facet normal 0 -0 -1
    outer loop
       vertex -0.31382 0.41 2.17
       vertex -0.26283 0.4007 2.17
       vertex -0.3648 0.4007 2.17
    endloop
  endfacet
  facet normal 0 0 -1
    outer loop
       vertex -0.4108 0.37371 2.17
       vertex -0.3648 0.4007 2.17
       vertex -0.26283 0.4007 2.17
    endloop
  endfacet
  facet normal 0 -0 -1
    outer loop
       vertex -0.26283 0.4007 2.17
       vertex -0.21683 0.37371 2.17
       vertex -0.4108 0.37371 2.17
    endloop
  endfacet
  facet normal 0 0 -1
    outer loop
       vertex -0.4473 0.33168 2.17
       vertex -0.4108 0.37371 2.17
       vertex -0.21683 0.37371 2.17
    endloop
  endfacet
  facet normal 0 0 -1
    outer loop
       vertex -0.4473 0.33168 2.17
       vertex -0.21683 0.37371 2.17
       vertex -0.18033 0.33168 2.17
    endloop
  endfacet
  facet normal 0 0 -1
    outer loop
       vertex -0.4473 0.33168 2.17
       vertex -0.18033 0.33168 2.17
       vertex -0.15689 0.27871 2.17
    endloop
  endfacet
  facet normal 0 0 -1
    outer loop
       vertex -0.4473 0.10832 2.17
       vertex -0.47074 0.16129 2.17
       vertex -0.15689 0.16129 2.17
    endloop
  endfacet
  facet normal 0 0 -1
    outer loop
       vertex -0.14882 0.22 2.17
       vertex -0.15689 0.16129 2.17
       vertex -0.47074 0.16129 2.17
    endloop
  endfacet
  facet normal 0 0 -1
    outer loop
       vertex -0.47074 0.16129 2.17
       vertex -0.47882 0.22 2.17
       vertex -0.14882 0.22 2.17
    endloop
  endfacet
  facet normal 0 0 -1
    outer loop
       vertex -0.47882 0.22 2.17
       vertex -0.47074 0.27871 2.17
       vertex -0.14882 0.22 2.17
    endloop
  endfacet
  facet normal -0 -0 -1
    outer loop
       vertex -0.15689 0.27871 2.17
       vertex -0.14882 0.22 2.17
       vertex -0.47074 0.27871 2.17
    endloop
  endfacet
  facet normal 0 -0 -1
    outer loop
       vertex -0.4473 0.33168 2.17
       vertex -0.15689 0.27871 2.17
       vertex -0.47074 0.27871 2.17
    endloop
  endfacet
  facet normal 0 0 -1
    outer loop
       vertex -0.15689 0.16129 2.17
       vertex -0.18033 0.10832 2.17
       vertex -0.4473 0.10832 2.17
    endloop
  endfacet
  facet normal -0 0 -1
    outer loop
       vertex -0.18033 0.10832 2.17
       vertex -0.21683 0.06629 2.17
       vertex -0.4473 0.10832 2.17
    endloop
  endfacet
  facet normal 0 0 -1
    outer loop
       vertex -0.4108 0.06629 2.17
       vertex -0.4473 0.10832 2.17
       vertex -0.21683 0.06629 2.17
    endloop
  endfacet
  facet normal 0 0 -1
    outer loop
       vertex -0.3648 0.0393 2.17
       vertex -0.4108 0.06629 2.17
       vertex -0.21683 0.06629 2.17
    endloop
  endfacet
  facet normal 0 0 -1
    outer loop
       vertex -0.21683 0.06629 2.17
       vertex -0.26283 0.0393 2.17
       vertex -0.3648 0.0393 2.17
    endloop
  endfacet
  facet normal 0 0 -1
    outer loop
       vertex -0.31382 0.03 2.17
       vertex -0.3648 0.0393 2.17
       vertex -0.26283 0.0393 2.17
    endloop
  endfacet
  facet normal 0 0 1
    outer loop
       vertex -0.14882 0.22 2.18
       vertex -0.15689 0.27871 2.18
       vertex -0.47074 0.27871 2.18
    endloop
  endfacet
  facet normal 0 0 1
    outer loop
       vertex -0.14882 0.22 2.18
       vertex -0.47074 0.27871 2.18
       vertex -0.47882 0.22 2.18
    endloop
  endfacet
  facet normal 0 0 1
    outer loop
       vertex -0.14882 0.22 2.18
       vertex -0.47882 0.22 2.18
       vertex -0.47074 0.16129 2.18
    endloop
  endfacet
  facet normal 0 -0 1
    outer loop
       vertex -0.4473 0.10832 2.18
       vertex -0.15689 0.16129 2.18
       vertex -0.47074 0.16129 2.18
    endloop
  endfacet
  facet normal 0 -0 1
    outer loop
       vertex -0.4108 0.06629 2.18
       vertex -0.21683 0.06629 2.18
       vertex -0.4473 0.10832 2.18
    endloop
  endfacet
  facet normal 0 -0 1
    outer loop
       vertex -0.3648 0.0393 2.18
       vertex -0.21683 0.06629 2.18
       vertex -0.4108 0.06629 2.18
    endloop
  endfacet
  facet normal 0 -0 1
    outer loop
       vertex -0.31382 0.03 2.18
       vertex -0.26283 0.0393 2.18
       vertex -0.3648 0.0393 2.18
    endloop
  endfacet
  facet normal 0 0 1
    outer loop
       vertex -0.21683 0.06629 2.18
       vertex -0.3648 0.0393 2.18
       vertex -0.26283 0.0393 2.18
    endloop
  endfacet
  facet normal 0 0 1
    outer loop
       vertex -0.18033 0.10832 2.18
       vertex -0.4473 0.10832 2.18
       vertex -0.21683 0.06629 2.18
    endloop
  endfacet
  facet normal 0 0 1
    outer loop
       vertex -0.15689 0.16129 2.18
       vertex -0.4473 0.10832 2.18
       vertex -0.18033 0.10832 2.18
    endloop
  endfacet
  facet normal 0 0 1
    outer loop
       vertex -0.14882 0.22 2.18
       vertex -0.47074 0.16129 2.18
       vertex -0.15689 0.16129 2.18
    endloop
  endfacet
  facet normal 0 0 1
    outer loop
       vertex -0.18033 0.33168 2.18
       vertex -0.21683 0.37371 2.18
       vertex -0.4473 0.33168 2.18
    endloop
  endfacet
  facet normal 0 0 1
    outer loop
       vertex -0.15689 0.27871 2.18
       vertex -0.18033 0.33168 2.18
       vertex -0.4473 0.33168 2.18
    endloop
  endfacet
  facet normal 0 0 1
    outer loop
       vertex -0.47074 0.27871 2.18
       vertex -0.15689 0.27871 2.18
       vertex -0.4473 0.33168 2.18
    endloop
  endfacet
  facet normal -0 0 1
    outer loop
       vertex -0.4108 0.37371 2.18
       vertex -0.4473 0.33168 2.18
       vertex -0.21683 0.37371 2.18
    endloop
  endfacet
  facet normal 0 0 1
    outer loop
       vertex -0.3648 0.4007 2.18
       vertex -0.4108 0.37371 2.18
       vertex -0.21683 0.37371 2.18
    endloop
  endfacet
  facet normal 0 0 1
    outer loop
       vertex -0.21683 0.37371 2.18
       vertex -0.26283 0.4007 2.18
       vertex -0.3648 0.4007 2.18
    endloop
  endfacet
  facet normal 0 0 1
    outer loop
       vertex -0.31382 0.41 2.18
       vertex -0.3648 0.4007 2.18
       vertex -0.26283 0.4007 2.18
    endloop
  endfacet
  facet normal -0.914465 0.404665 0
    outer loop
       vertex -0.4473 0.33168 2.17
       vertex -0.47074 0.27871 2.18
       vertex -0.4473 0.33168 2.18
    endloop
  endfacet
  facet normal -0.914465 0.404665 0
    outer loop
       vertex -0.4473 0.33168 2.17
       vertex -0.47074 0.27871 2.17
       vertex -0.47074 0.27871 2.18
    endloop
  endfacet
  facet normal 0.914465 -0.404664 0
    outer loop
       vertex -0.18033 0.10832 2.17
       vertex -0.15689 0.16129 2.17
       vertex -0.15689 0.16129 2.18
    endloop
  endfacet
  facet normal 0.914465 -0.404664 0
    outer loop
       vertex -0.18033 0.10832 2.17
       vertex -0.15689 0.16129 2.18
       vertex -0.18033 0.10832 2.18
    endloop
  endfacet
  facet normal 0.179429 -0.983771 0
    outer loop
       vertex -0.31382 0.03 2.18
       vertex -0.31382 0.03 2.17
       vertex -0.26283 0.0393 2.17
    endloop
  endfacet
  facet normal 0.179429 -0.983771 0
    outer loop
       vertex -0.31382 0.03 2.18
       vertex -0.26283 0.0393 2.17
       vertex -0.26283 0.0393 2.18
    endloop
  endfacet
  facet normal -0.990662 0.13634 0
    outer loop
       vertex -0.47074 0.27871 2.17
       vertex -0.47882 0.22 2.17
       vertex -0.47882 0.22 2.18
    endloop
  endfacet
  facet normal -0.990662 0.13634 0
    outer loop
       vertex -0.47074 0.27871 2.17
       vertex -0.47882 0.22 2.18
       vertex -0.47074 0.27871 2.18
    endloop
  endfacet
  facet normal 0.990685 -0.136175 0
    outer loop
       vertex -0.15689 0.16129 2.17
       vertex -0.14882 0.22 2.17
       vertex -0.14882 0.22 2.18
    endloop
  endfacet
  facet normal 0.990685 -0.136175 0
    outer loop
       vertex -0.15689 0.16129 2.17
       vertex -0.14882 0.22 2.18
       vertex -0.15689 0.16129 2.18
    endloop
  endfacet
  facet normal 0.506061 -0.862498 0
    outer loop
       vertex -0.26283 0.0393 2.17
       vertex -0.21683 0.06629 2.17
       vertex -0.21683 0.06629 2.18
    endloop
  endfacet
  facet normal 0.506061 -0.862498 0
    outer loop
       vertex -0.26283 0.0393 2.17
       vertex -0.21683 0.06629 2.18
       vertex -0.26283 0.0393 2.18
    endloop
  endfacet
  facet normal -0.990662 -0.13634 -0
    outer loop
       vertex -0.47882 0.22 2.18
       vertex -0.47882 0.22 2.17
       vertex -0.47074 0.16129 2.17
    endloop
  endfacet
  facet normal -0.990662 -0.13634 0
    outer loop
       vertex -0.47882 0.22 2.18
       vertex -0.47074 0.16129 2.17
       vertex -0.47074 0.16129 2.18
    endloop
  endfacet
  facet normal 0.990685 0.136175 -0
    outer loop
       vertex -0.15689 0.27871 2.17
       vertex -0.15689 0.27871 2.18
       vertex -0.14882 0.22 2.18
    endloop
  endfacet
  facet normal 0.990685 0.136175 0
    outer loop
       vertex -0.15689 0.27871 2.17
       vertex -0.14882 0.22 2.18
       vertex -0.14882 0.22 2.17
    endloop
  endfacet
  facet normal 0.755031 -0.655689 0
    outer loop
       vertex -0.21683 0.06629 2.17
       vertex -0.18033 0.10832 2.17
       vertex -0.18033 0.10832 2.18
    endloop
  endfacet
  facet normal 0.755031 -0.655689 0
    outer loop
       vertex -0.21683 0.06629 2.17
       vertex -0.18033 0.10832 2.18
       vertex -0.21683 0.06629 2.18
    endloop
  endfacet
  facet normal 0.179429 0.983771 0
    outer loop
       vertex -0.26283 0.4007 2.17
       vertex -0.31382 0.41 2.17
       vertex -0.31382 0.41 2.18
    endloop
  endfacet
  facet normal 0.179429 0.983771 -0
    outer loop
       vertex -0.26283 0.4007 2.17
       vertex -0.31382 0.41 2.18
       vertex -0.26283 0.4007 2.18
    endloop
  endfacet
  facet normal -0.179463 0.983765 0
    outer loop
       vertex -0.31382 0.41 2.17
       vertex -0.3648 0.4007 2.17
       vertex -0.3648 0.4007 2.18
    endloop
  endfacet
  facet normal -0.179463 0.983765 0
    outer loop
       vertex -0.31382 0.41 2.17
       vertex -0.3648 0.4007 2.18
       vertex -0.31382 0.41 2.18
    endloop
  endfacet
  facet normal -0.506061 0.862498 0
    outer loop
       vertex -0.3648 0.4007 2.17
       vertex -0.4108 0.37371 2.17
       vertex -0.4108 0.37371 2.18
    endloop
  endfacet
  facet normal -0.506061 0.862498 0
    outer loop
       vertex -0.3648 0.4007 2.17
       vertex -0.4108 0.37371 2.18
       vertex -0.3648 0.4007 2.18
    endloop
  endfacet
  facet normal -0.755031 0.655689 0
    outer loop
       vertex -0.4108 0.37371 2.17
       vertex -0.4473 0.33168 2.17
       vertex -0.4473 0.33168 2.18
    endloop
  endfacet
  facet normal -0.755031 0.655689 0
    outer loop
       vertex -0.4108 0.37371 2.17
       vertex -0.4473 0.33168 2.18
       vertex -0.4108 0.37371 2.18
    endloop
  endfacet
  facet normal 0.914465 0.404664 0
    outer loop
       vertex -0.18033 0.33168 2.18
       vertex -0.15689 0.27871 2.18
       vertex -0.18033 0.33168 2.17
    endloop
  endfacet
  facet normal 0.914465 0.404664 -0
    outer loop
       vertex -0.15689 0.27871 2.17
       vertex -0.18033 0.33168 2.17
       vertex -0.15689 0.27871 2.18
    endloop
  endfacet
  facet normal 0.755031 0.655689 0
    outer loop
       vertex -0.18033 0.33168 2.17
       vertex -0.21683 0.37371 2.17
       vertex -0.21683 0.37371 2.18
    endloop
  endfacet
  facet normal 0.755031 0.655689 -0
    outer loop
       vertex -0.18033 0.33168 2.17
       vertex -0.21683 0.37371 2.18
       vertex -0.18033 0.33168 2.18
    endloop
  endfacet
  facet normal 0.506061 0.862498 0
    outer loop
       vertex -0.21683 0.37371 2.17
       vertex -0.26283 0.4007 2.17
       vertex -0.26283 0.4007 2.18
    endloop
  endfacet
  facet normal 0.506061 0.862498 -0
    outer loop
       vertex -0.21683 0.37371 2.17
       vertex -0.26283 0.4007 2.18
       vertex -0.21683 0.37371 2.18
    endloop
  endfacet
  facet normal -0.914465 -0.404665 0
    outer loop
       vertex -0.47074 0.16129 2.17
       vertex -0.4473 0.10832 2.17
       vertex -0.4473 0.10832 2.18
    endloop
  endfacet
  facet normal -0.914465 -0.404665 0
    outer loop
       vertex -0.47074 0.16129 2.17
       vertex -0.4473 0.10832 2.18
       vertex -0.47074 0.16129 2.18
    endloop
  endfacet
endsolid patch0
