solid patch0
  facet normal 0.890949 0.454103 0
    outer loop
       vertex 0.4709 0.06878 -0.01
       vertex 0.48511 0.0409 -0.01
       vertex 0.48511 0.0409 -0.03
    endloop
  endfacet
  facet normal 0.890949 0.454103 0
    outer loop
       vertex 0.4709 0.06878 -0.01
       vertex 0.48511 0.0409 -0.03
       vertex 0.4709 0.06878 -0.03
    endloop
  endfacet
  facet normal -0.987708 0.156307 0
    outer loop
       vertex 0.29489 0.0409 -0.01
       vertex 0.29489 0.0409 -0.03
       vertex 0.29 0.01 -0.03
    endloop
  endfacet
  facet normal -0.987708 0.156307 0
    outer loop
       vertex 0.29489 0.0409 -0.01
       vertex 0.29 0.01 -0.03
       vertex 0.29 0.01 -0.01
    endloop
  endfacet
  facet normal 0.987709 0.156307 0
    outer loop
       vertex 0.48511 0.0409 -0.01
       vertex 0.49 0.01 -0.01
       vertex 0.49 0.01 -0.03
    endloop
  endfacet
  facet normal 0.987709 0.156307 0
    outer loop
       vertex 0.48511 0.0409 -0.01
       vertex 0.49 0.01 -0.03
       vertex 0.48511 0.0409 -0.03
    endloop
  endfacet
  facet normal -0.156307 0.987708 0
    outer loop
       vertex 0.39 0.11 -0.03
       vertex 0.3591 0.10511 -0.03
       vertex 0.3591 0.10511 -0.01
    endloop
  endfacet
  facet normal -0.156307 0.987708 0
    outer loop
       vertex 0.39 0.11 -0.03
       vertex 0.3591 0.10511 -0.01
       vertex 0.39 0.11 -0.01
    endloop
  endfacet
  facet normal 0.454103 -0.890949 0
    outer loop
       vertex 0.4209 -0.08511 -0.01
       vertex 0.4209 -0.08511 -0.03
       vertex 0.44878 -0.0709 -0.03
    endloop
  endfacet
  facet normal 0.454103 -0.890949 0
    outer loop
       vertex 0.4209 -0.08511 -0.01
       vertex 0.44878 -0.0709 -0.03
       vertex 0.44878 -0.0709 -0.01
    endloop
  endfacet
  facet normal -0.707107 -0.707107 -0
    outer loop
       vertex 0.3091 -0.04878 -0.01
       vertex 0.3091 -0.04878 -0.03
       vertex 0.33122 -0.0709 -0.03
    endloop
  endfacet
  facet normal -0.707107 -0.707107 0
    outer loop
       vertex 0.3091 -0.04878 -0.01
       vertex 0.33122 -0.0709 -0.03
       vertex 0.33122 -0.0709 -0.01
    endloop
  endfacet
  facet normal -0.890949 0.454103 0
    outer loop
       vertex 0.3091 0.06878 -0.01
       vertex 0.3091 0.06878 -0.03
       vertex 0.29489 0.0409 -0.03
    endloop
  endfacet
  facet normal -0.890949 0.454103 0
    outer loop
       vertex 0.3091 0.06878 -0.01
       vertex 0.29489 0.0409 -0.03
       vertex 0.29489 0.0409 -0.01
    endloop
  endfacet
  facet normal 0.987709 -0.156307 0
    outer loop
       vertex 0.49 0.01 -0.01
       vertex 0.48511 -0.0209 -0.01
       vertex 0.49 0.01 -0.03
    endloop
  endfacet
  facet normal 0.987709 -0.156307 0
    outer loop
       vertex 0.48511 -0.0209 -0.03
       vertex 0.49 0.01 -0.03
       vertex 0.48511 -0.0209 -0.01
    endloop
  endfacet
  facet normal 0.890949 -0.454103 0
    outer loop
       vertex 0.4709 -0.04878 -0.01
       vertex 0.4709 -0.04878 -0.03
       vertex 0.48511 -0.0209 -0.03
    endloop
  endfacet
  facet normal 0.890949 -0.454103 0
    outer loop
       vertex 0.4709 -0.04878 -0.01
       vertex 0.48511 -0.0209 -0.03
       vertex 0.48511 -0.0209 -0.01
    endloop
  endfacet
  facet normal -0.707107 0.707107 0
    outer loop
       vertex 0.33122 0.0909 -0.01
       vertex 0.33122 0.0909 -0.03
       vertex 0.3091 0.06878 -0.03
    endloop
  endfacet
  facet normal -0.707107 0.707107 0
    outer loop
       vertex 0.33122 0.0909 -0.01
       vertex 0.3091 0.06878 -0.03
       vertex 0.3091 0.06878 -0.01
    endloop
  endfacet
  facet normal 0 0 1
    outer loop
       vertex 0.29489 -0.0209 -0.01
       vertex 0.3091 -0.04878 -0.01
       vertex 0.33122 -0.0709 -0.01
    endloop
  endfacet
  facet normal 0 0 1
    outer loop
       vertex 0.29489 -0.0209 -0.01
       vertex 0.33122 -0.0709 -0.01
       vertex 0.3591 -0.08511 -0.01
    endloop
  endfacet
  facet normal 0 0 1
    outer loop
       vertex 0.29489 -0.0209 -0.01
       vertex 0.3591 -0.08511 -0.01
       vertex 0.39 -0.09 -0.01
    endloop
  endfacet
  facet normal 0 0 1
    outer loop
       vertex 0.29489 -0.0209 -0.01
       vertex 0.39 -0.09 -0.01
       vertex 0.4209 -0.08511 -0.01
    endloop
  endfacet
  facet normal 0 0 1
    outer loop
       vertex 0.29489 -0.0209 -0.01
       vertex 0.4209 -0.08511 -0.01
       vertex 0.44878 -0.0709 -0.01
    endloop
  endfacet
  facet normal 0 0 1
    outer loop
       vertex 0.4709 -0.04878 -0.01
       vertex 0.29 0.01 -0.01
       vertex 0.44878 -0.0709 -0.01
    endloop
  endfacet
  facet normal 0 0 1
    outer loop
       vertex 0.48511 -0.0209 -0.01
       vertex 0.29 0.01 -0.01
       vertex 0.4709 -0.04878 -0.01
    endloop
  endfacet
  facet normal -0.890949 -0.454103 -0
    outer loop
       vertex 0.29489 -0.0209 -0.01
       vertex 0.29489 -0.0209 -0.03
       vertex 0.3091 -0.04878 -0.03
    endloop
  endfacet
  facet normal -0.890949 -0.454103 0
    outer loop
       vertex 0.29489 -0.0209 -0.01
       vertex 0.3091 -0.04878 -0.03
       vertex 0.3091 -0.04878 -0.01
    endloop
  endfacet
  facet normal -0.987708 -0.156307 -0
    outer loop
       vertex 0.29 0.01 -0.01
       vertex 0.29 0.01 -0.03
       vertex 0.29489 -0.0209 -0.01
    endloop
  endfacet
  facet normal 0.707107 -0.707107 0
    outer loop
       vertex 0.44878 -0.0709 -0.01
       vertex 0.44878 -0.0709 -0.03
       vertex 0.4709 -0.04878 -0.03
    endloop
  endfacet
  facet normal 0.707107 -0.707107 0
    outer loop
       vertex 0.44878 -0.0709 -0.01
       vertex 0.4709 -0.04878 -0.03
       vertex 0.4709 -0.04878 -0.01
    endloop
  endfacet
  facet normal -0.454103 0.890949 0
    outer loop
       vertex 0.3591 0.10511 -0.01
       vertex 0.3591 0.10511 -0.03
       vertex 0.33122 0.0909 -0.03
    endloop
  endfacet
  facet normal -0.454103 0.890949 0
    outer loop
       vertex 0.3591 0.10511 -0.01
       vertex 0.33122 0.0909 -0.03
       vertex 0.33122 0.0909 -0.01
    endloop
  endfacet
  facet normal 0.156307 0.987708 0
    outer loop
       vertex 0.4209 0.10511 -0.01
       vertex 0.4209 0.10511 -0.03
       vertex 0.39 0.11 -0.03
    endloop
  endfacet
  facet normal 0.156307 0.987708 0
    outer loop
       vertex 0.4209 0.10511 -0.01
       vertex 0.39 0.11 -0.03
       vertex 0.39 0.11 -0.01
    endloop
  endfacet
  facet normal -0.987708 -0.156307 0
    outer loop
       vertex 0.29 0.01 -0.03
       vertex 0.29489 -0.0209 -0.03
       vertex 0.29489 -0.0209 -0.01
    endloop
  endfacet
  facet normal 0.454103 0.890949 0
    outer loop
       vertex 0.44878 0.0909 -0.01
       vertex 0.44878 0.0909 -0.03
       vertex 0.4209 0.10511 -0.03
    endloop
  endfacet
  facet normal 0.454103 0.890949 0
    outer loop
       vertex 0.44878 0.0909 -0.01
       vertex 0.4209 0.10511 -0.03
       vertex 0.4209 0.10511 -0.01
    endloop
  endfacet
  facet normal 0 0 -1
    outer loop
       vertex 0.29 0.01 -0.03
       vertex 0.29489 0.0409 -0.03
       vertex 0.3091 0.06878 -0.03
    endloop
  endfacet
  facet normal 0 0 -1
    outer loop
       vertex 0.29 0.01 -0.03
       vertex 0.3091 0.06878 -0.03
       vertex 0.33122 0.0909 -0.03
    endloop
  endfacet
  facet normal 0 0 -1
    outer loop
       vertex 0.29 0.01 -0.03
       vertex 0.33122 0.0909 -0.03
       vertex 0.3591 0.10511 -0.03
    endloop
  endfacet
  facet normal 0 0 -1
    outer loop
       vertex 0.29 0.01 -0.03
       vertex 0.3591 0.10511 -0.03
       vertex 0.39 0.11 -0.03
    endloop
  endfacet
  facet normal 0 0 -1
    outer loop
       vertex 0.29 0.01 -0.03
       vertex 0.39 0.11 -0.03
       vertex 0.4209 0.10511 -0.03
    endloop
  endfacet
  facet normal 0 0 -1
    outer loop
       vertex 0.29 0.01 -0.03
       vertex 0.4209 0.10511 -0.03
       vertex 0.44878 0.0909 -0.03
    endloop
  endfacet
  facet normal 0 0 -1
    outer loop
       vertex 0.29 0.01 -0.03
       vertex 0.44878 0.0909 -0.03
       vertex 0.4709 0.06878 -0.03
    endloop
  endfacet
  facet normal 0 0 -1
    outer loop
       vertex 0.29 0.01 -0.03
       vertex 0.4709 0.06878 -0.03
       vertex 0.48511 0.0409 -0.03
    endloop
  endfacet
  facet normal 0 0 -1
    outer loop
       vertex 0.29 0.01 -0.03
       vertex 0.48511 0.0409 -0.03
       vertex 0.49 0.01 -0.03
    endloop
  endfacet
  facet normal 0 0 -1
    outer loop
       vertex 0.48511 -0.0209 -0.03
       vertex 0.29 0.01 -0.03
       vertex 0.49 0.01 -0.03
    endloop
  endfacet
  facet normal 0.707107 0.707107 0
    outer loop
       vertex 0.44878 0.0909 -0.01
       vertex 0.4709 0.06878 -0.01
       vertex 0.4709 0.06878 -0.03
    endloop
  endfacet
  facet normal 0.707107 0.707107 0
    outer loop
       vertex 0.44878 0.0909 -0.01
       vertex 0.4709 0.06878 -0.03
       vertex 0.44878 0.0909 -0.03
    endloop
  endfacet
  facet normal 0.156307 -0.987708 0
    outer loop
       vertex 0.39 -0.09 -0.01
       vertex 0.39 -0.09 -0.03
       vertex 0.4209 -0.08511 -0.03
    endloop
  endfacet
  facet normal 0.156307 -0.987708 0
    outer loop
       vertex 0.39 -0.09 -0.01
       vertex 0.4209 -0.08511 -0.03
       vertex 0.4209 -0.08511 -0.01
    endloop
  endfacet
  facet normal -0.156307 -0.987708 0
    outer loop
       vertex 0.39 -0.09 -0.03
       vertex 0.39 -0.09 -0.01
       vertex 0.3591 -0.08511 -0.01
    endloop
  endfacet
  facet normal -0.156307 -0.987708 0
    outer loop
       vertex 0.39 -0.09 -0.03
       vertex 0.3591 -0.08511 -0.01
       vertex 0.3591 -0.08511 -0.03
    endloop
  endfacet
  facet normal -0 0 -1
    outer loop
       vertex 0.48511 -0.0209 -0.03
       vertex 0.4709 -0.04878 -0.03
       vertex 0.29 0.01 -0.03
    endloop
  endfacet
  facet normal -0 0 -1
    outer loop
       vertex 0.4709 -0.04878 -0.03
       vertex 0.44878 -0.0709 -0.03
       vertex 0.29 0.01 -0.03
    endloop
  endfacet
  facet normal 0 0 -1
    outer loop
       vertex 0.29489 -0.0209 -0.03
       vertex 0.29 0.01 -0.03
       vertex 0.44878 -0.0709 -0.03
    endloop
  endfacet
  facet normal 0 0 -1
    outer loop
       vertex 0.29489 -0.0209 -0.03
       vertex 0.44878 -0.0709 -0.03
       vertex 0.4209 -0.08511 -0.03
    endloop
  endfacet
  facet normal 0 0 -1
    outer loop
       vertex 0.29489 -0.0209 -0.03
       vertex 0.4209 -0.08511 -0.03
       vertex 0.39 -0.09 -0.03
    endloop
  endfacet
  facet normal 0 0 -1
    outer loop
       vertex 0.29489 -0.0209 -0.03
       vertex 0.39 -0.09 -0.03
       vertex 0.3591 -0.08511 -0.03
    endloop
  endfacet
  facet normal 0 0 -1
    outer loop
       vertex 0.29489 -0.0209 -0.03
       vertex 0.3591 -0.08511 -0.03
       vertex 0.33122 -0.0709 -0.03
    endloop
  endfacet
  facet normal 0 0 -1
    outer loop
       vertex 0.29489 -0.0209 -0.03
       vertex 0.33122 -0.0709 -0.03
       vertex 0.3091 -0.04878 -0.03
    endloop
  endfacet
  facet normal -0.454103 -0.890949 0
    outer loop
       vertex 0.3591 -0.08511 -0.01
       vertex 0.33122 -0.0709 -0.01
       vertex 0.33122 -0.0709 -0.03
    endloop
  endfacet
  facet normal -0.454103 -0.890949 -0
    outer loop
       vertex 0.3591 -0.08511 -0.01
       vertex 0.33122 -0.0709 -0.03
       vertex 0.3591 -0.08511 -0.03
    endloop
  endfacet
  facet normal 0 0 1
    outer loop
       vertex 0.33122 0.0909 -0.01
       vertex 0.3091 0.06878 -0.01
       vertex 0.49 0.01 -0.01
    endloop
  endfacet
  facet normal 0 0 1
    outer loop
       vertex 0.3091 0.06878 -0.01
       vertex 0.29489 0.0409 -0.01
       vertex 0.49 0.01 -0.01
    endloop
  endfacet
  facet normal 0 0 1
    outer loop
       vertex 0.29489 0.0409 -0.01
       vertex 0.29 0.01 -0.01
       vertex 0.49 0.01 -0.01
    endloop
  endfacet
  facet normal 0 -0 1
    outer loop
       vertex 0.48511 -0.0209 -0.01
       vertex 0.49 0.01 -0.01
       vertex 0.29 0.01 -0.01
    endloop
  endfacet
  facet normal -0 -0 1
    outer loop
       vertex 0.29489 -0.0209 -0.01
       vertex 0.44878 -0.0709 -0.01
       vertex 0.29 0.01 -0.01
    endloop
  endfacet
  facet normal 0 0 1
    outer loop
       vertex 0.3591 0.10511 -0.01
       vertex 0.33122 0.0909 -0.01
       vertex 0.49 0.01 -0.01
    endloop
  endfacet
  facet normal 0 0 1
    outer loop
       vertex 0.39 0.11 -0.01
       vertex 0.3591 0.10511 -0.01
       vertex 0.49 0.01 -0.01
    endloop
  endfacet
  facet normal 0 0 1
    outer loop
       vertex 0.39 0.11 -0.01
       vertex 0.49 0.01 -0.01
       vertex 0.48511 0.0409 -0.01
    endloop
  endfacet
  facet normal 0 0 1
    outer loop
       vertex 0.39 0.11 -0.01
       vertex 0.48511 0.0409 -0.01
       vertex 0.4709 0.06878 -0.01
    endloop
  endfacet
  facet normal 0 0 1
    outer loop
       vertex 0.39 0.11 -0.01
       vertex 0.4709 0.06878 -0.01
       vertex 0.44878 0.0909 -0.01
    endloop
  endfacet
  facet normal 0 0 1
    outer loop
       vertex 0.39 0.11 -0.01
       vertex 0.44878 0.0909 -0.01
       vertex 0.4209 0.10511 -0.01
    endloop
  endfacet
endsolid patch0
