solid patch0
  facet normal -0.707266 0.706947 0
    outer loop
       vertex 0.32122 0.07123 2
       vertex 0.2991 0.0491 2
       vertex 0.2991 0.0491 2.01
    endloop
  endfacet
  facet normal -0.707266 0.706947 0
    outer loop
       vertex 0.32122 0.07123 2
       vertex 0.2991 0.0491 2.01
       vertex 0.32122 0.07123 2.01
    endloop
  endfacet
  facet normal 0.453849 0.891078 0
    outer loop
       vertex 0.43878 0.07123 2
       vertex 0.4109 0.08543 2
       vertex 0.4109 0.08543 2.01
    endloop
  endfacet
  facet normal 0.453849 0.891078 -0
    outer loop
       vertex 0.43878 0.07123 2
       vertex 0.4109 0.08543 2.01
       vertex 0.43878 0.07123 2.01
    endloop
  endfacet
  facet normal -0.890883 0.454232 0
    outer loop
       vertex 0.2991 0.0491 2
       vertex 0.28489 0.02123 2
       vertex 0.28489 0.02123 2.01
    endloop
  endfacet
  facet normal -0.890883 0.454232 0
    outer loop
       vertex 0.2991 0.0491 2
       vertex 0.28489 0.02123 2.01
       vertex 0.2991 0.0491 2.01
    endloop
  endfacet
  facet normal 0.156307 0.987709 0
    outer loop
       vertex 0.4109 0.08543 2
       vertex 0.38 0.09032 2
       vertex 0.38 0.09032 2.01
    endloop
  endfacet
  facet normal 0.156307 0.987709 -0
    outer loop
       vertex 0.4109 0.08543 2
       vertex 0.38 0.09032 2.01
       vertex 0.4109 0.08543 2.01
    endloop
  endfacet
  facet normal -0.707266 -0.706947 0
    outer loop
       vertex 0.2991 -0.06845 2
       vertex 0.32122 -0.09058 2
       vertex 0.32122 -0.09058 2.01
    endloop
  endfacet
  facet normal -0.707266 -0.706947 0
    outer loop
       vertex 0.2991 -0.06845 2
       vertex 0.32122 -0.09058 2.01
       vertex 0.2991 -0.06845 2.01
    endloop
  endfacet
  facet normal -0.453849 -0.891078 0
    outer loop
       vertex 0.3491 -0.10478 2
       vertex 0.3491 -0.10478 2.01
       vertex 0.32122 -0.09058 2.01
    endloop
  endfacet
  facet normal -0.453849 -0.891078 0
    outer loop
       vertex 0.3491 -0.10478 2
       vertex 0.32122 -0.09058 2.01
       vertex 0.32122 -0.09058 2
    endloop
  endfacet
  facet normal 0.156619 -0.987659 0
    outer loop
       vertex 0.38 -0.10968 2.01
       vertex 0.38 -0.10968 2
       vertex 0.4109 -0.10478 2
    endloop
  endfacet
  facet normal 0.156619 -0.987659 0
    outer loop
       vertex 0.38 -0.10968 2.01
       vertex 0.4109 -0.10478 2
       vertex 0.4109 -0.10478 2.01
    endloop
  endfacet
  facet normal 0.453849 -0.891078 0
    outer loop
       vertex 0.4109 -0.10478 2
       vertex 0.43878 -0.09058 2
       vertex 0.43878 -0.09058 2.01
    endloop
  endfacet
  facet normal 0.453849 -0.891078 0
    outer loop
       vertex 0.4109 -0.10478 2
       vertex 0.43878 -0.09058 2.01
       vertex 0.4109 -0.10478 2.01
    endloop
  endfacet
  facet normal -0.156619 -0.987659 0
    outer loop
       vertex 0.38 -0.10968 2
       vertex 0.38 -0.10968 2.01
       vertex 0.3491 -0.10478 2.01
    endloop
  endfacet
  facet normal -0.156619 -0.987659 0
    outer loop
       vertex 0.38 -0.10968 2
       vertex 0.3491 -0.10478 2.01
       vertex 0.3491 -0.10478 2
    endloop
  endfacet
  facet normal 0.707266 -0.706947 0
    outer loop
       vertex 0.43878 -0.09058 2
       vertex 0.4609 -0.06845 2
       vertex 0.4609 -0.06845 2.01
    endloop
  endfacet
  facet normal 0.707266 -0.706947 0
    outer loop
       vertex 0.43878 -0.09058 2
       vertex 0.4609 -0.06845 2.01
       vertex 0.43878 -0.09058 2.01
    endloop
  endfacet
  facet normal 0 -0 -1
    outer loop
       vertex 0.32122 0.07123 2
       vertex 0.3491 0.08543 2
       vertex 0.2991 0.0491 2
    endloop
  endfacet
  facet normal 0 -0 -1
    outer loop
       vertex 0.3491 0.08543 2
       vertex 0.38 0.09032 2
       vertex 0.2991 0.0491 2
    endloop
  endfacet
  facet normal 0 -0 -1
    outer loop
       vertex 0.38 0.09032 2
       vertex 0.4109 0.08543 2
       vertex 0.2991 0.0491 2
    endloop
  endfacet
  facet normal 0 -0 -1
    outer loop
       vertex 0.4109 0.08543 2
       vertex 0.43878 0.07123 2
       vertex 0.2991 0.0491 2
    endloop
  endfacet
  facet normal 0 -0 -1
    outer loop
       vertex 0.43878 0.07123 2
       vertex 0.4609 0.0491 2
       vertex 0.2991 0.0491 2
    endloop
  endfacet
  facet normal 0 0 -1
    outer loop
       vertex 0.28489 0.02123 2
       vertex 0.2991 0.0491 2
       vertex 0.4609 0.0491 2
    endloop
  endfacet
  facet normal 0 0 -1
    outer loop
       vertex 0.28489 0.02123 2
       vertex 0.4609 0.0491 2
       vertex 0.47511 0.02123 2
    endloop
  endfacet
  facet normal 0 0 -1
    outer loop
       vertex 0.28489 0.02123 2
       vertex 0.47511 0.02123 2
       vertex 0.48 -0.00968 2
    endloop
  endfacet
  facet normal 0 0 1
    outer loop
       vertex 0.28489 0.02123 2.01
       vertex 0.28 -0.00968 2.01
       vertex 0.48 -0.00968 2.01
    endloop
  endfacet
  facet normal 0 0 1
    outer loop
       vertex 0.48 -0.00968 2.01
       vertex 0.28 -0.00968 2.01
       vertex 0.28489 -0.04058 2.01
    endloop
  endfacet
  facet normal 0 0 1
    outer loop
       vertex 0.48 -0.00968 2.01
       vertex 0.28489 -0.04058 2.01
       vertex 0.2991 -0.06845 2.01
    endloop
  endfacet
  facet normal 0 0 1
    outer loop
       vertex 0.48 -0.00968 2.01
       vertex 0.2991 -0.06845 2.01
       vertex 0.32122 -0.09058 2.01
    endloop
  endfacet
  facet normal 0 0 1
    outer loop
       vertex 0.48 -0.00968 2.01
       vertex 0.32122 -0.09058 2.01
       vertex 0.3491 -0.10478 2.01
    endloop
  endfacet
  facet normal 0 0 1
    outer loop
       vertex 0.48 -0.00968 2.01
       vertex 0.3491 -0.10478 2.01
       vertex 0.38 -0.10968 2.01
    endloop
  endfacet
  facet normal 0 0 1
    outer loop
       vertex 0.48 -0.00968 2.01
       vertex 0.38 -0.10968 2.01
       vertex 0.4109 -0.10478 2.01
    endloop
  endfacet
  facet normal 0 0 1
    outer loop
       vertex 0.48 -0.00968 2.01
       vertex 0.4109 -0.10478 2.01
       vertex 0.43878 -0.09058 2.01
    endloop
  endfacet
  facet normal 0 0 1
    outer loop
       vertex 0.48 -0.00968 2.01
       vertex 0.43878 -0.09058 2.01
       vertex 0.4609 -0.06845 2.01
    endloop
  endfacet
  facet normal 0 0 1
    outer loop
       vertex 0.48 -0.00968 2.01
       vertex 0.4609 -0.06845 2.01
       vertex 0.47511 -0.04058 2.01
    endloop
  endfacet
  facet normal -0.987716 0.156258 0
    outer loop
       vertex 0.28 -0.00968 2.01
       vertex 0.28489 0.02123 2.01
       vertex 0.28 -0.00968 2
    endloop
  endfacet
  facet normal -0.987716 0.156258 0
    outer loop
       vertex 0.28489 0.02123 2
       vertex 0.28 -0.00968 2
       vertex 0.28489 0.02123 2.01
    endloop
  endfacet
  facet normal -0.156307 0.987709 0
    outer loop
       vertex 0.38 0.09032 2
       vertex 0.3491 0.08543 2
       vertex 0.3491 0.08543 2.01
    endloop
  endfacet
  facet normal -0.156307 0.987709 0
    outer loop
       vertex 0.38 0.09032 2
       vertex 0.3491 0.08543 2.01
       vertex 0.38 0.09032 2.01
    endloop
  endfacet
  facet normal 0.987716 0.156257 0
    outer loop
       vertex 0.47511 0.02123 2.01
       vertex 0.48 -0.00968 2.01
       vertex 0.47511 0.02123 2
    endloop
  endfacet
  facet normal 0.987716 0.156257 -0
    outer loop
       vertex 0.48 -0.00968 2
       vertex 0.47511 0.02123 2
       vertex 0.48 -0.00968 2.01
    endloop
  endfacet
  facet normal 0.890883 -0.454233 0
    outer loop
       vertex 0.4609 -0.06845 2
       vertex 0.47511 -0.04058 2
       vertex 0.47511 -0.04058 2.01
    endloop
  endfacet
  facet normal 0.890883 -0.454233 0
    outer loop
       vertex 0.4609 -0.06845 2
       vertex 0.47511 -0.04058 2.01
       vertex 0.4609 -0.06845 2.01
    endloop
  endfacet
  facet normal -0.987708 -0.156307 -0
    outer loop
       vertex 0.28 -0.00968 2.01
       vertex 0.28 -0.00968 2
       vertex 0.28489 -0.04058 2
    endloop
  endfacet
  facet normal -0.987708 -0.156307 0
    outer loop
       vertex 0.28 -0.00968 2.01
       vertex 0.28489 -0.04058 2
       vertex 0.28489 -0.04058 2.01
    endloop
  endfacet
  facet normal 0.890883 0.454233 0
    outer loop
       vertex 0.47511 0.02123 2
       vertex 0.4609 0.0491 2
       vertex 0.4609 0.0491 2.01
    endloop
  endfacet
  facet normal 0.890883 0.454233 -0
    outer loop
       vertex 0.47511 0.02123 2
       vertex 0.4609 0.0491 2.01
       vertex 0.47511 0.02123 2.01
    endloop
  endfacet
  facet normal -0.453849 0.891078 0
    outer loop
       vertex 0.3491 0.08543 2
       vertex 0.32122 0.07123 2
       vertex 0.32122 0.07123 2.01
    endloop
  endfacet
  facet normal -0.453849 0.891078 0
    outer loop
       vertex 0.3491 0.08543 2
       vertex 0.32122 0.07123 2.01
       vertex 0.3491 0.08543 2.01
    endloop
  endfacet
  facet normal 0.987709 -0.156307 0
    outer loop
       vertex 0.47511 -0.04058 2
       vertex 0.48 -0.00968 2
       vertex 0.48 -0.00968 2.01
    endloop
  endfacet
  facet normal 0.987709 -0.156307 0
    outer loop
       vertex 0.47511 -0.04058 2
       vertex 0.48 -0.00968 2.01
       vertex 0.47511 -0.04058 2.01
    endloop
  endfacet
  facet normal 0 0 -1
    outer loop
       vertex 0.2991 -0.06845 2
       vertex 0.48 -0.00968 2
       vertex 0.32122 -0.09058 2
    endloop
  endfacet
  facet normal 0 0 -1
    outer loop
       vertex 0.3491 -0.10478 2
       vertex 0.32122 -0.09058 2
       vertex 0.48 -0.00968 2
    endloop
  endfacet
  facet normal 0 0 -1
    outer loop
       vertex 0.28489 -0.04058 2
       vertex 0.48 -0.00968 2
       vertex 0.2991 -0.06845 2
    endloop
  endfacet
  facet normal 0 0 -1
    outer loop
       vertex 0.28 -0.00968 2
       vertex 0.48 -0.00968 2
       vertex 0.28489 -0.04058 2
    endloop
  endfacet
  facet normal 0 -0 -1
    outer loop
       vertex 0.28489 0.02123 2
       vertex 0.48 -0.00968 2
       vertex 0.28 -0.00968 2
    endloop
  endfacet
  facet normal 0 0 -1
    outer loop
       vertex 0.48 -0.00968 2
       vertex 0.47511 -0.04058 2
       vertex 0.3491 -0.10478 2
    endloop
  endfacet
  facet normal 0 0 -1
    outer loop
       vertex 0.47511 -0.04058 2
       vertex 0.4609 -0.06845 2
       vertex 0.3491 -0.10478 2
    endloop
  endfacet
  facet normal 0 0 -1
    outer loop
       vertex 0.38 -0.10968 2
       vertex 0.3491 -0.10478 2
       vertex 0.4609 -0.06845 2
    endloop
  endfacet
  facet normal -0 0 -1
    outer loop
       vertex 0.43878 -0.09058 2
       vertex 0.4109 -0.10478 2
       vertex 0.4609 -0.06845 2
    endloop
  endfacet
  facet normal 0 0 -1
    outer loop
       vertex 0.38 -0.10968 2
       vertex 0.4609 -0.06845 2
       vertex 0.4109 -0.10478 2
    endloop
  endfacet
  facet normal -0.890883 -0.454232 0
    outer loop
       vertex 0.28489 -0.04058 2
       vertex 0.2991 -0.06845 2
       vertex 0.2991 -0.06845 2.01
    endloop
  endfacet
  facet normal -0.890883 -0.454232 0
    outer loop
       vertex 0.28489 -0.04058 2
       vertex 0.2991 -0.06845 2.01
       vertex 0.28489 -0.04058 2.01
    endloop
  endfacet
  facet normal 0.707266 0.706947 0
    outer loop
       vertex 0.4609 0.0491 2
       vertex 0.43878 0.07123 2
       vertex 0.43878 0.07123 2.01
    endloop
  endfacet
  facet normal 0.707266 0.706947 -0
    outer loop
       vertex 0.4609 0.0491 2
       vertex 0.43878 0.07123 2.01
       vertex 0.4609 0.0491 2.01
    endloop
  endfacet
  facet normal -0 0 1
    outer loop
       vertex 0.2991 0.0491 2.01
       vertex 0.48 -0.00968 2.01
       vertex 0.32122 0.07123 2.01
    endloop
  endfacet
  facet normal 0 0 1
    outer loop
       vertex 0.3491 0.08543 2.01
       vertex 0.32122 0.07123 2.01
       vertex 0.48 -0.00968 2.01
    endloop
  endfacet
  facet normal -0 0 1
    outer loop
       vertex 0.28489 0.02123 2.01
       vertex 0.48 -0.00968 2.01
       vertex 0.2991 0.0491 2.01
    endloop
  endfacet
  facet normal 0 0 1
    outer loop
       vertex 0.38 0.09032 2.01
       vertex 0.3491 0.08543 2.01
       vertex 0.48 -0.00968 2.01
    endloop
  endfacet
  facet normal 0 0 1
    outer loop
       vertex 0.38 0.09032 2.01
       vertex 0.48 -0.00968 2.01
       vertex 0.47511 0.02123 2.01
    endloop
  endfacet
  facet normal 0 0 1
    outer loop
       vertex 0.38 0.09032 2.01
       vertex 0.47511 0.02123 2.01
       vertex 0.4609 0.0491 2.01
    endloop
  endfacet
  facet normal 0 0 1
    outer loop
       vertex 0.43878 0.07123 2.01
       vertex 0.4109 0.08543 2.01
       vertex 0.4609 0.0491 2.01
    endloop
  endfacet
  facet normal 0 0 1
    outer loop
       vertex 0.38 0.09032 2.01
       vertex 0.4609 0.0491 2.01
       vertex 0.4109 0.08543 2.01
    endloop
  endfacet
endsolid patch0
